<svg xmlns="http://www.w3.org/2000/svg" xmlns:xlink="http://www.w3.org/1999/xlink" width="1400" zoomAndPan="magnify" viewBox="0 0 1050 1049.999947" height="1400" preserveAspectRatio="xMidYMid meet" version="1.0"><defs><clipPath id="57bf4e74c7"><path d="M 921 269 L 1020.28125 269 L 1020.28125 334 L 921 334 Z M 921 269 " clip-rule="nonzero"/></clipPath><clipPath id="249fa33314"><path d="M 29.53125 269 L 129 269 L 129 334 L 29.53125 334 Z M 29.53125 269 " clip-rule="nonzero"/></clipPath></defs><path fill="#af0629" d="M 970.992188 274.59375 C 966.535156 274.59375 962.824219 271.078125 962.625 266.574219 C 961.703125 245.839844 953.933594 229.476562 938.882812 216.566406 C 892.320312 176.625 794.257812 186.808594 793.28125 186.917969 C 788.746094 187.390625 784.546875 184.101562 784.039062 179.5 C 783.535156 174.894531 786.855469 170.761719 791.46875 170.253906 C 795.796875 169.792969 897.785156 159.230469 949.800781 203.84375 C 968.304688 219.707031 978.253906 240.5625 979.378906 265.835938 C 979.582031 270.460938 976 274.382812 971.367188 274.585938 L 970.992188 274.59375 " fill-opacity="1" fill-rule="nonzero"/><g clip-path="url(#57bf4e74c7)"><path fill="#cc0727" d="M 934.988281 333.375 L 1007.023438 333.375 C 1014.339844 333.375 1020.28125 327.445312 1020.28125 320.117188 L 1020.28125 271.777344 C 1020.28125 270.3125 1019.089844 269.125 1017.628906 269.125 L 924.382812 269.125 C 922.917969 269.125 921.730469 270.3125 921.730469 271.777344 L 921.730469 320.117188 C 921.730469 327.445312 927.660156 333.375 934.988281 333.375 " fill-opacity="1" fill-rule="nonzero"/></g><path fill="#ff3e5c" d="M 971.71875 314.25 C 953.222656 314.25 946.410156 301.914062 945.410156 294.878906 C 944.746094 290.292969 947.941406 286.046875 952.515625 285.386719 C 956.988281 284.75 961.214844 287.816406 961.96875 292.28125 C 962.308594 293.792969 964.269531 298.414062 974.628906 297.328125 C 979.304688 296.875 983.34375 300.226562 983.816406 304.832031 C 984.277344 309.433594 980.914062 313.550781 976.3125 314.011719 C 974.703125 314.175781 973.171875 314.25 971.71875 314.25 " fill-opacity="1" fill-rule="nonzero"/><path fill="#ddb034" d="M 78.820312 274.59375 L 78.433594 274.585938 C 73.8125 274.382812 70.230469 270.460938 70.433594 265.835938 C 71.558594 240.5625 81.507812 219.707031 100.011719 203.84375 C 152.027344 159.222656 254.027344 169.773438 258.34375 170.253906 C 262.945312 170.761719 266.269531 174.894531 265.773438 179.5 C 265.265625 184.101562 261.085938 187.378906 256.53125 186.917969 C 255.535156 186.816406 157.382812 176.699219 110.902344 216.585938 C 95.871094 229.496094 88.109375 245.847656 87.1875 266.574219 C 86.988281 271.078125 83.277344 274.59375 78.820312 274.59375 " fill-opacity="1" fill-rule="nonzero"/><path fill="#fcce3a" d="M 484.402344 1048.949219 L 174.148438 1048.949219 C 171.285156 1048.949219 168.964844 1046.628906 168.964844 1043.765625 L 168.964844 330.171875 C 168.964844 327.316406 171.285156 324.996094 174.148438 324.996094 L 484.402344 324.996094 C 487.253906 324.996094 489.574219 327.316406 489.574219 330.171875 L 489.574219 1043.765625 C 489.574219 1046.628906 487.253906 1048.949219 484.402344 1048.949219 " fill-opacity="1" fill-rule="nonzero"/><path fill="#fbdb64" d="M 456.582031 324.996094 L 201.957031 324.996094 L 201.957031 270.984375 C 201.957031 269.363281 203.273438 268.039062 204.902344 268.039062 L 453.636719 268.039062 C 455.253906 268.039062 456.582031 269.363281 456.582031 270.984375 L 456.582031 324.996094 " fill-opacity="1" fill-rule="nonzero"/><path fill="#fcce3a" d="M 401.078125 177.308594 L 401.078125 268.046875 L 257.46875 268.046875 L 257.46875 177.308594 C 257.46875 173.382812 260.652344 170.199219 264.585938 170.199219 L 393.972656 170.199219 C 397.894531 170.199219 401.078125 173.382812 401.078125 177.308594 " fill-opacity="1" fill-rule="nonzero"/><path fill="#ddb034" d="M 380.660156 170.179688 L 277.90625 170.179688 L 282.546875 139.507812 L 376.011719 139.507812 L 380.660156 170.179688 " fill-opacity="1" fill-rule="nonzero"/><path fill="#fddaa7" d="M 376.011719 139.507812 L 282.546875 139.507812 L 301.785156 11 C 302.660156 5.144531 307.6875 0.816406 313.605469 0.816406 L 344.960938 0.816406 C 350.878906 0.816406 355.90625 5.144531 356.78125 11 L 376.011719 139.507812 " fill-opacity="1" fill-rule="nonzero"/><path fill="#fbdb64" d="M 420.464844 962.121094 L 386.847656 962.121094 C 383.429688 962.121094 380.660156 959.347656 380.660156 955.933594 L 380.660156 414.023438 C 380.660156 410.605469 383.429688 407.835938 386.847656 407.835938 L 420.464844 407.835938 C 423.882812 407.835938 426.652344 410.605469 426.652344 414.023438 L 426.652344 955.933594 C 426.652344 959.347656 423.882812 962.121094 420.464844 962.121094 " fill-opacity="1" fill-rule="nonzero"/><path fill="#fbdb64" d="M 291.308594 427.078125 L 239.039062 427.078125 C 234.40625 427.078125 230.660156 423.324219 230.660156 418.691406 C 230.660156 414.058594 234.40625 410.3125 239.039062 410.3125 L 291.308594 410.3125 C 295.941406 410.3125 299.695312 414.058594 299.695312 418.691406 C 299.695312 423.324219 295.941406 427.078125 291.308594 427.078125 " fill-opacity="1" fill-rule="nonzero"/><path fill="#fbdb64" d="M 291.308594 476.488281 L 239.039062 476.488281 C 234.40625 476.488281 230.660156 472.730469 230.660156 468.097656 C 230.660156 463.46875 234.40625 459.710938 239.039062 459.710938 L 291.308594 459.710938 C 295.941406 459.710938 299.695312 463.46875 299.695312 468.097656 C 299.695312 472.730469 295.941406 476.488281 291.308594 476.488281 " fill-opacity="1" fill-rule="nonzero"/><path fill="#fbdb64" d="M 291.308594 525.886719 L 239.039062 525.886719 C 234.40625 525.886719 230.660156 522.128906 230.660156 517.496094 C 230.660156 512.867188 234.40625 509.117188 239.039062 509.117188 L 291.308594 509.117188 C 295.941406 509.117188 299.695312 512.867188 299.695312 517.496094 C 299.695312 522.128906 295.941406 525.886719 291.308594 525.886719 " fill-opacity="1" fill-rule="nonzero"/><path fill="#fbdb64" d="M 291.308594 575.285156 L 239.039062 575.285156 C 234.40625 575.285156 230.660156 571.527344 230.660156 566.90625 C 230.660156 562.273438 234.40625 558.515625 239.039062 558.515625 L 291.308594 558.515625 C 295.941406 558.515625 299.695312 562.273438 299.695312 566.90625 C 299.695312 571.527344 295.941406 575.285156 291.308594 575.285156 " fill-opacity="1" fill-rule="nonzero"/><path fill="#fbdb64" d="M 291.308594 624.691406 L 239.039062 624.691406 C 234.40625 624.691406 230.660156 620.933594 230.660156 616.304688 C 230.660156 611.671875 234.40625 607.914062 239.039062 607.914062 L 291.308594 607.914062 C 295.941406 607.914062 299.695312 611.671875 299.695312 616.304688 C 299.695312 620.933594 295.941406 624.691406 291.308594 624.691406 " fill-opacity="1" fill-rule="nonzero"/><path fill="#fbdb64" d="M 291.308594 674.089844 L 239.039062 674.089844 C 234.40625 674.089844 230.660156 670.34375 230.660156 665.710938 C 230.660156 661.078125 234.40625 657.324219 239.039062 657.324219 L 291.308594 657.324219 C 295.941406 657.324219 299.695312 661.078125 299.695312 665.710938 C 299.695312 670.34375 295.941406 674.089844 291.308594 674.089844 " fill-opacity="1" fill-rule="nonzero"/><path fill="#fbdb64" d="M 291.308594 723.496094 L 239.039062 723.496094 C 234.40625 723.496094 230.660156 719.742188 230.660156 715.109375 C 230.660156 710.476562 234.40625 706.722656 239.039062 706.722656 L 291.308594 706.722656 C 295.941406 706.722656 299.695312 710.476562 299.695312 715.109375 C 299.695312 719.742188 295.941406 723.496094 291.308594 723.496094 " fill-opacity="1" fill-rule="nonzero"/><path fill="#fbdb64" d="M 291.308594 772.894531 L 239.039062 772.894531 C 234.40625 772.894531 230.660156 769.140625 230.660156 764.507812 C 230.660156 759.875 234.40625 756.128906 239.039062 756.128906 L 291.308594 756.128906 C 295.941406 756.128906 299.695312 759.875 299.695312 764.507812 C 299.695312 769.140625 295.941406 772.894531 291.308594 772.894531 " fill-opacity="1" fill-rule="nonzero"/><path fill="#fbdb64" d="M 291.308594 822.292969 L 239.039062 822.292969 C 234.40625 822.292969 230.660156 818.546875 230.660156 813.914062 C 230.660156 809.285156 234.40625 805.527344 239.039062 805.527344 L 291.308594 805.527344 C 295.941406 805.527344 299.695312 809.285156 299.695312 813.914062 C 299.695312 818.546875 295.941406 822.292969 291.308594 822.292969 " fill-opacity="1" fill-rule="nonzero"/><path fill="#fbdb64" d="M 291.308594 871.703125 L 239.039062 871.703125 C 234.40625 871.703125 230.660156 867.945312 230.660156 863.3125 C 230.660156 858.683594 234.40625 854.933594 239.039062 854.933594 L 291.308594 854.933594 C 295.941406 854.933594 299.695312 858.683594 299.695312 863.3125 C 299.695312 867.945312 295.941406 871.703125 291.308594 871.703125 " fill-opacity="1" fill-rule="nonzero"/><path fill="#fbdb64" d="M 291.308594 921.101562 L 239.039062 921.101562 C 234.40625 921.101562 230.660156 917.351562 230.660156 912.722656 C 230.660156 908.089844 234.40625 904.332031 239.039062 904.332031 L 291.308594 904.332031 C 295.941406 904.332031 299.695312 908.089844 299.695312 912.722656 C 299.695312 917.351562 295.941406 921.101562 291.308594 921.101562 " fill-opacity="1" fill-rule="nonzero"/><path fill="#fbdb64" d="M 291.308594 970.507812 L 239.039062 970.507812 C 234.40625 970.507812 230.660156 966.75 230.660156 962.121094 C 230.660156 957.488281 234.40625 953.730469 239.039062 953.730469 L 291.308594 953.730469 C 295.941406 953.730469 299.695312 957.488281 299.695312 962.121094 C 299.695312 966.75 295.941406 970.507812 291.308594 970.507812 " fill-opacity="1" fill-rule="nonzero"/><path fill="#fddaa7" d="M 401.078125 194.679688 L 401.078125 211.449219 L 347.097656 211.449219 C 342.484375 211.449219 338.710938 207.671875 338.710938 203.058594 C 338.710938 198.457031 342.484375 194.679688 347.097656 194.679688 L 401.078125 194.679688 " fill-opacity="1" fill-rule="nonzero"/><path fill="#fddaa7" d="M 322.628906 211.449219 L 312.039062 211.449219 C 307.410156 211.449219 303.652344 207.691406 303.652344 203.058594 C 303.652344 198.429688 307.410156 194.671875 312.039062 194.671875 L 322.628906 194.671875 C 327.257812 194.671875 331.015625 198.429688 331.015625 203.058594 C 331.015625 207.691406 327.257812 211.449219 322.628906 211.449219 " fill-opacity="1" fill-rule="nonzero"/><path fill="#cc0727" d="M 565.410156 1048.949219 L 875.664062 1048.949219 C 878.527344 1048.949219 880.847656 1046.628906 880.847656 1043.765625 L 880.847656 330.171875 C 880.847656 327.316406 878.527344 324.996094 875.664062 324.996094 L 565.410156 324.996094 C 562.558594 324.996094 560.238281 327.316406 560.238281 330.171875 L 560.238281 1043.765625 C 560.238281 1046.628906 562.558594 1048.949219 565.410156 1048.949219 " fill-opacity="1" fill-rule="nonzero"/><path fill="#ff3e5c" d="M 593.230469 324.996094 L 847.855469 324.996094 L 847.855469 270.984375 C 847.855469 269.363281 846.539062 268.039062 844.910156 268.039062 L 596.175781 268.039062 C 594.558594 268.039062 593.230469 269.363281 593.230469 270.984375 L 593.230469 324.996094 " fill-opacity="1" fill-rule="nonzero"/><path fill="#cc0727" d="M 792.34375 170.199219 L 792.34375 268.046875 L 648.734375 268.046875 L 648.734375 170.199219 L 792.34375 170.199219 " fill-opacity="1" fill-rule="nonzero"/><path fill="#af0629" d="M 669.152344 170.179688 L 771.90625 170.179688 L 767.265625 139.507812 L 673.800781 139.507812 L 669.152344 170.179688 " fill-opacity="1" fill-rule="nonzero"/><path fill="#ff3e5c" d="M 673.800781 139.507812 L 767.265625 139.507812 L 748.027344 11 C 747.152344 5.144531 742.125 0.816406 736.207031 0.816406 L 704.851562 0.816406 C 698.933594 0.816406 693.90625 5.144531 693.03125 11 L 673.800781 139.507812 " fill-opacity="1" fill-rule="nonzero"/><path fill="#af0629" d="M 629.347656 962.121094 L 662.964844 962.121094 C 666.382812 962.121094 669.152344 959.347656 669.152344 955.933594 L 669.152344 414.023438 C 669.152344 410.605469 666.382812 407.835938 662.964844 407.835938 L 629.347656 407.835938 C 625.929688 407.835938 623.160156 410.605469 623.160156 414.023438 L 623.160156 955.933594 C 623.160156 959.347656 625.929688 962.121094 629.347656 962.121094 " fill-opacity="1" fill-rule="nonzero"/><path fill="#af0629" d="M 810.773438 427.078125 L 758.503906 427.078125 C 753.871094 427.078125 750.117188 423.324219 750.117188 418.691406 C 750.117188 414.058594 753.871094 410.3125 758.503906 410.3125 L 810.773438 410.3125 C 815.40625 410.3125 819.152344 414.058594 819.152344 418.691406 C 819.152344 423.324219 815.40625 427.078125 810.773438 427.078125 " fill-opacity="1" fill-rule="nonzero"/><path fill="#af0629" d="M 810.773438 476.488281 L 758.503906 476.488281 C 753.871094 476.488281 750.117188 472.730469 750.117188 468.097656 C 750.117188 463.46875 753.871094 459.710938 758.503906 459.710938 L 810.773438 459.710938 C 815.40625 459.710938 819.152344 463.46875 819.152344 468.097656 C 819.152344 472.730469 815.40625 476.488281 810.773438 476.488281 " fill-opacity="1" fill-rule="nonzero"/><path fill="#af0629" d="M 810.773438 525.886719 L 758.503906 525.886719 C 753.871094 525.886719 750.117188 522.128906 750.117188 517.496094 C 750.117188 512.867188 753.871094 509.117188 758.503906 509.117188 L 810.773438 509.117188 C 815.40625 509.117188 819.152344 512.867188 819.152344 517.496094 C 819.152344 522.128906 815.40625 525.886719 810.773438 525.886719 " fill-opacity="1" fill-rule="nonzero"/><path fill="#af0629" d="M 810.773438 575.285156 L 758.503906 575.285156 C 753.871094 575.285156 750.117188 571.527344 750.117188 566.90625 C 750.117188 562.273438 753.871094 558.515625 758.503906 558.515625 L 810.773438 558.515625 C 815.40625 558.515625 819.152344 562.273438 819.152344 566.90625 C 819.152344 571.527344 815.40625 575.285156 810.773438 575.285156 " fill-opacity="1" fill-rule="nonzero"/><path fill="#af0629" d="M 810.773438 624.691406 L 758.503906 624.691406 C 753.871094 624.691406 750.117188 620.933594 750.117188 616.304688 C 750.117188 611.671875 753.871094 607.914062 758.503906 607.914062 L 810.773438 607.914062 C 815.40625 607.914062 819.152344 611.671875 819.152344 616.304688 C 819.152344 620.933594 815.40625 624.691406 810.773438 624.691406 " fill-opacity="1" fill-rule="nonzero"/><path fill="#af0629" d="M 810.773438 674.089844 L 758.503906 674.089844 C 753.871094 674.089844 750.117188 670.34375 750.117188 665.710938 C 750.117188 661.078125 753.871094 657.324219 758.503906 657.324219 L 810.773438 657.324219 C 815.40625 657.324219 819.152344 661.078125 819.152344 665.710938 C 819.152344 670.34375 815.40625 674.089844 810.773438 674.089844 " fill-opacity="1" fill-rule="nonzero"/><path fill="#af0629" d="M 810.773438 723.496094 L 758.503906 723.496094 C 753.871094 723.496094 750.117188 719.742188 750.117188 715.109375 C 750.117188 710.476562 753.871094 706.722656 758.503906 706.722656 L 810.773438 706.722656 C 815.40625 706.722656 819.152344 710.476562 819.152344 715.109375 C 819.152344 719.742188 815.40625 723.496094 810.773438 723.496094 " fill-opacity="1" fill-rule="nonzero"/><path fill="#af0629" d="M 810.773438 772.894531 L 758.503906 772.894531 C 753.871094 772.894531 750.117188 769.140625 750.117188 764.507812 C 750.117188 759.875 753.871094 756.128906 758.503906 756.128906 L 810.773438 756.128906 C 815.40625 756.128906 819.152344 759.875 819.152344 764.507812 C 819.152344 769.140625 815.40625 772.894531 810.773438 772.894531 " fill-opacity="1" fill-rule="nonzero"/><path fill="#af0629" d="M 810.773438 822.292969 L 758.503906 822.292969 C 753.871094 822.292969 750.117188 818.546875 750.117188 813.914062 C 750.117188 809.285156 753.871094 805.527344 758.503906 805.527344 L 810.773438 805.527344 C 815.40625 805.527344 819.152344 809.285156 819.152344 813.914062 C 819.152344 818.546875 815.40625 822.292969 810.773438 822.292969 " fill-opacity="1" fill-rule="nonzero"/><path fill="#af0629" d="M 810.773438 871.703125 L 758.503906 871.703125 C 753.871094 871.703125 750.117188 867.945312 750.117188 863.3125 C 750.117188 858.683594 753.871094 854.933594 758.503906 854.933594 L 810.773438 854.933594 C 815.40625 854.933594 819.152344 858.683594 819.152344 863.3125 C 819.152344 867.945312 815.40625 871.703125 810.773438 871.703125 " fill-opacity="1" fill-rule="nonzero"/><path fill="#af0629" d="M 810.773438 921.101562 L 758.503906 921.101562 C 753.871094 921.101562 750.117188 917.351562 750.117188 912.722656 C 750.117188 908.089844 753.871094 904.332031 758.503906 904.332031 L 810.773438 904.332031 C 815.40625 904.332031 819.152344 908.089844 819.152344 912.722656 C 819.152344 917.351562 815.40625 921.101562 810.773438 921.101562 " fill-opacity="1" fill-rule="nonzero"/><path fill="#af0629" d="M 810.773438 970.507812 L 758.503906 970.507812 C 753.871094 970.507812 750.117188 966.75 750.117188 962.121094 C 750.117188 957.488281 753.871094 953.730469 758.503906 953.730469 L 810.773438 953.730469 C 815.40625 953.730469 819.152344 957.488281 819.152344 962.121094 C 819.152344 966.75 815.40625 970.507812 810.773438 970.507812 " fill-opacity="1" fill-rule="nonzero"/><path fill="#ff3e5c" d="M 711.101562 203.058594 C 711.101562 207.671875 707.328125 211.449219 702.714844 211.449219 L 648.734375 211.449219 L 648.734375 194.679688 L 702.714844 194.679688 C 707.328125 194.679688 711.101562 198.457031 711.101562 203.058594 " fill-opacity="1" fill-rule="nonzero"/><path fill="#ff3e5c" d="M 737.773438 211.449219 L 727.183594 211.449219 C 722.554688 211.449219 718.796875 207.691406 718.796875 203.058594 C 718.796875 198.429688 722.554688 194.671875 727.183594 194.671875 L 737.773438 194.671875 C 742.402344 194.671875 746.160156 198.429688 746.160156 203.058594 C 746.160156 207.691406 742.402344 211.449219 737.773438 211.449219 " fill-opacity="1" fill-rule="nonzero"/><g clip-path="url(#249fa33314)"><path fill="#fcce3a" d="M 114.824219 333.375 L 42.789062 333.375 C 35.472656 333.375 29.53125 327.445312 29.53125 320.117188 L 29.53125 271.777344 C 29.53125 270.3125 30.71875 269.125 32.183594 269.125 L 125.429688 269.125 C 126.894531 269.125 128.082031 270.3125 128.082031 271.777344 L 128.082031 320.117188 C 128.082031 327.445312 122.152344 333.375 114.824219 333.375 " fill-opacity="1" fill-rule="nonzero"/></g><path fill="#fddaa7" d="M 78.09375 314.25 C 76.640625 314.25 75.109375 314.175781 73.5 314.011719 C 68.898438 313.550781 65.535156 309.433594 66.007812 304.832031 C 66.464844 300.226562 70.535156 296.875 75.183594 297.328125 C 86.820312 298.523438 87.804688 292.566406 87.816406 292.503906 C 88.46875 287.917969 92.695312 284.710938 97.296875 285.386719 C 101.871094 286.046875 105.058594 290.292969 104.402344 294.878906 C 103.410156 301.914062 96.578125 314.25 78.09375 314.25 " fill-opacity="1" fill-rule="nonzero"/></svg>