<svg xmlns="http://www.w3.org/2000/svg" xmlns:xlink="http://www.w3.org/1999/xlink" width="1400" zoomAndPan="magnify" viewBox="0 0 1050 1049.999947" height="1400" preserveAspectRatio="xMidYMid meet" version="1.0"><defs><clipPath id="0392acf711"><path d="M 74.8125 1 L 848 1 L 848 1036 L 74.8125 1036 Z M 74.8125 1 " clip-rule="nonzero"/></clipPath></defs><g clip-path="url(#0392acf711)"><path fill="#f1473a" d="M 468.644531 1035.347656 C 361.921875 1035.347656 98.144531 1018.671875 74.785156 715.050781 C 74.785156 715.050781 143.105469 836.039062 143.210938 821.820312 C 143.535156 775.636719 74.785156 606.609375 246.667969 491.507812 C 457.015625 350.65625 393.542969 177.875 343.472656 174.542969 C 343.472656 174.542969 478.082031 160.921875 490.347656 339.367188 C 497.011719 436.457031 578.804688 156.191406 530.40625 1.046875 C 530.40625 1.046875 776.148438 131.167969 745.683594 451.464844 C 745.683594 451.464844 783.65625 378.90625 847.492188 417.679688 C 847.492188 417.679688 807.429688 431.457031 820.796875 538.226562 C 834.136719 644.984375 892.542969 1035.347656 468.644531 1035.347656 " fill-opacity="1" fill-rule="nonzero"/></g><path fill="#f79326" d="M 436.933594 1024.269531 C 367.949219 1021.121094 236.660156 1005.917969 236.660156 834.09375 C 236.660156 662.269531 408.566406 638.90625 408.566406 480.429688 C 408.566406 480.429688 490.332031 508.78125 481.996094 587.199219 C 481.996094 587.199219 642.210938 487.101562 628.859375 368.65625 C 628.859375 368.65625 975.4375 1048.890625 436.933594 1024.269531 " fill-opacity="1" fill-rule="nonzero"/><path fill="#f79326" d="M 436.933594 1024.269531 C 367.949219 1021.121094 236.660156 1005.917969 236.660156 834.09375 C 236.660156 662.269531 408.566406 638.90625 408.566406 480.429688 C 408.566406 480.429688 490.332031 508.78125 481.996094 587.199219 C 481.996094 587.199219 642.210938 487.101562 628.859375 368.65625 C 628.859375 368.65625 975.4375 1048.890625 436.933594 1024.269531 " fill-opacity="1" fill-rule="nonzero"/><path fill="#fff533" d="M 470.316406 728.308594 C 470.316406 728.308594 512.035156 850.589844 443.609375 850.589844 C 396.042969 850.589844 401.878906 798.882812 401.878906 798.882812 C 401.878906 798.882812 269.199219 1014.082031 470.316406 1014.082031 C 511.050781 1014.082031 582.136719 1005.738281 582.136719 895.636719 C 582.136719 785.535156 520.371094 741.140625 470.316406 728.308594 " fill-opacity="1" fill-rule="nonzero"/></svg>